<?xml version="1.0" encoding="UTF-8" standalone="no"?>
<svg
   xmlns:dc="http://purl.org/dc/elements/1.1/"
   xmlns:cc="http://creativecommons.org/ns#"
   xmlns:rdf="http://www.w3.org/1999/02/22-rdf-syntax-ns#"
   xmlns:svg="http://www.w3.org/2000/svg"
   xmlns="http://www.w3.org/2000/svg"
   xmlns:sodipodi="http://sodipodi.sourceforge.net/DTD/sodipodi-0.dtd"
   xmlns:inkscape="http://www.inkscape.org/namespaces/inkscape"
   width="16"
   height="16.007"
   version="1.1"
   id="svg3775"
   sodipodi:docname="sste.svg"
   inkscape:version="0.92.5 (2060ec1f9f, 2020-04-08)">
  <metadata
     id="metadata3781">
    <rdf:RDF>
      <cc:Work
         rdf:about="">
        <dc:format>image/svg+xml</dc:format>
        <dc:type
           rdf:resource="http://purl.org/dc/dcmitype/StillImage" />
      </cc:Work>
    </rdf:RDF>
  </metadata>
  <defs
     id="defs3779">
    <inkscape:path-effect
       effect="ellipse_5pts"
       id="path-effect4640"
       is_visible="true" />
  </defs>
  <sodipodi:namedview
     pagecolor="#ffffff"
     bordercolor="#666666"
     borderopacity="1"
     objecttolerance="10"
     gridtolerance="10"
     guidetolerance="10"
     inkscape:pageopacity="0"
     inkscape:pageshadow="2"
     inkscape:window-width="1598"
     inkscape:window-height="878"
     id="namedview3777"
     showgrid="false"
     inkscape:zoom="43.605922"
     inkscape:cx="8"
     inkscape:cy="7.0861934"
     inkscape:window-x="0"
     inkscape:window-y="20"
     inkscape:window-maximized="0"
     inkscape:current-layer="svg3775" />
  <path
     inkscape:connector-curvature="0"
     id="path3767"
     style="font-weight:400;font-family:sans-serif;font-variant-ligatures:normal;font-variant-position:normal;font-variant-caps:normal;font-variant-numeric:normal;font-variant-alternates:normal;font-feature-settings:normal;text-indent:0;text-decoration:none;text-decoration-line:none;text-decoration-style:solid;text-decoration-color:#000000;text-transform:none;text-orientation:mixed;shape-padding:0;overflow:visible;isolation:auto;mix-blend-mode:normal;fill:#474747"
     overflow="visible"
     d="m 5.5,6.007 a 0.5,0.5 0 1 0 0,1 h 6 a 0.5,0.5 0 1 0 0,-1 z m 0,2 a 0.5,0.5 0 1 0 0,1 h 5 a 0.5,0.5 0 1 0 0,-1 z m 0,2 a 0.5,0.5 0 1 0 0,1 h 6 a 0.5,0.5 0 1 0 0,-1 z m 0,2 a 0.5,0.5 0 1 0 0,1 h 3 a 0.5,0.5 0 1 0 0,-1 z" />
  <path
     inkscape:connector-curvature="0"
     id="path3769"
     style="font-weight:400;font-family:Sans;text-indent:0;text-decoration:none;text-decoration-line:none;text-transform:none;overflow:visible;fill:#474747"
     overflow="visible"
     d="m 4,1.007 c -1.09,0 -2,0.91 -2,2 v 11 c 0,1.09 0.91,2 2,2 h 9 c 1.09,0 2,-0.91 2,-2 v -11 c 0,-1.09 -0.91,-2 -2,-2 v 13 H 4 Z" />
  <ellipse
     style="fill:#000000;fill-opacity:0"
     id="path3792"
     cx="1.4906232"
     cy="5.6758347"
     rx="0.8485086"
     ry="0.79117692" />
  <path
     style="fill:#000000;fill-opacity:0;stroke-width:0.02293267"
     d="M 5.2693381,6.9321694 C 5.0034718,6.7918072 4.9329227,6.4326313 5.126743,6.2061957 5.2934618,6.0114224 5.1581512,6.0231905 7.2374889,6.0226214 c 1.0121905,-2.775e-4 1.8403463,-0.00703 1.8403463,-0.014996 0,-0.00797 -0.020511,-0.047681 -0.04558,-0.088243 C 8.9595554,5.8017518 8.8691372,5.5434947 8.835384,5.3570705 8.7350449,4.8028795 8.9014021,4.2450558 9.2914028,3.827964 9.6695684,3.4235294 10.158384,3.2250655 10.705003,3.2540281 c 0.283512,0.015022 0.452663,0.056113 0.689031,0.1673834 0.463433,0.2181606 0.806614,0.6203553 0.966772,1.1330157 0.04561,0.1459817 0.05373,0.2205532 0.05373,0.4930523 0,0.272429 -0.0081,0.3471082 -0.05371,0.4930523 -0.06772,0.2168822 -0.193232,0.4584625 -0.317964,0.6120091 l -0.09663,0.1189567 0.02561,0.1220782 c 0.04437,0.2115327 -0.0138,0.3628234 -0.195811,0.5093207 l -0.08812,0.070927 -3.1585239,0.00597 -3.1585238,0.00597 z"
     id="path3818"
     inkscape:connector-curvature="0" />
  <path
     style="fill:#000000;fill-opacity:0;stroke-width:0.02293267"
     d="M 5.2693381,6.9321694 C 5.0034718,6.7918072 4.9329227,6.4326313 5.126743,6.2061957 5.2934618,6.0114224 5.1581512,6.0231905 7.2374889,6.0226214 c 1.0121905,-2.775e-4 1.8403463,-0.00703 1.8403463,-0.014996 0,-0.00797 -0.020511,-0.047681 -0.04558,-0.088243 C 8.9595554,5.8017518 8.8691372,5.5434947 8.835384,5.3570705 8.7350449,4.8028795 8.9014021,4.2450558 9.2914028,3.827964 9.6695684,3.4235294 10.158384,3.2250655 10.705003,3.2540281 c 0.283512,0.015022 0.452663,0.056113 0.689031,0.1673834 0.463433,0.2181606 0.806614,0.6203553 0.966772,1.1330157 0.04561,0.1459817 0.05373,0.2205532 0.05373,0.4930523 0,0.272429 -0.0081,0.3471082 -0.05371,0.4930523 -0.06772,0.2168822 -0.193232,0.4584625 -0.317964,0.6120091 l -0.09663,0.1189567 0.02561,0.1220782 c 0.04437,0.2115327 -0.0138,0.3628234 -0.195811,0.5093207 l -0.08812,0.070927 -3.1585239,0.00597 -3.1585238,0.00597 z"
     id="path3820"
     inkscape:connector-curvature="0" />
  <path
     style="fill:#000000;fill-opacity:0;stroke-width:0.02293267"
     d="M 5.2693381,6.9321694 C 5.0034718,6.7918072 4.9329227,6.4326313 5.126743,6.2061957 5.2934618,6.0114224 5.1581512,6.0231905 7.2374889,6.0226214 c 1.0121905,-2.775e-4 1.8403463,-0.00703 1.8403463,-0.014996 0,-0.00797 -0.020511,-0.047681 -0.04558,-0.088243 C 8.9595554,5.8017518 8.8691372,5.5434947 8.835384,5.3570705 8.7350449,4.8028795 8.9014021,4.2450558 9.2914028,3.827964 9.6695684,3.4235294 10.158384,3.2250655 10.705003,3.2540281 c 0.283512,0.015022 0.452663,0.056113 0.689031,0.1673834 0.463433,0.2181606 0.806614,0.6203553 0.966772,1.1330157 0.04561,0.1459817 0.05373,0.2205532 0.05373,0.4930523 0,0.272429 -0.0081,0.3471082 -0.05371,0.4930523 -0.06772,0.2168822 -0.193232,0.4584625 -0.317964,0.6120091 l -0.09663,0.1189567 0.02561,0.1220782 c 0.04437,0.2115327 -0.0138,0.3628234 -0.195811,0.5093207 l -0.08812,0.070927 -3.1585239,0.00597 -3.1585238,0.00597 z"
     id="path3822"
     inkscape:connector-curvature="0" />
  <path
     style="fill:#000000;fill-opacity:0;stroke-width:0.02293267"
     d="M 5.2693381,6.9321694 C 5.0034718,6.7918072 4.9329227,6.4326313 5.126743,6.2061957 5.2934618,6.0114224 5.1581512,6.0231905 7.2374889,6.0226214 c 1.0121905,-2.775e-4 1.8403463,-0.00703 1.8403463,-0.014996 0,-0.00797 -0.020511,-0.047681 -0.04558,-0.088243 C 8.9595554,5.8017518 8.8691372,5.5434947 8.835384,5.3570705 8.7350449,4.8028795 8.9014021,4.2450558 9.2914028,3.827964 9.6695684,3.4235294 10.158384,3.2250655 10.705003,3.2540281 c 0.283512,0.015022 0.452663,0.056113 0.689031,0.1673834 0.463433,0.2181606 0.806614,0.6203553 0.966772,1.1330157 0.04561,0.1459817 0.05373,0.2205532 0.05373,0.4930523 0,0.272429 -0.0081,0.3471082 -0.05371,0.4930523 -0.06772,0.2168822 -0.193232,0.4584625 -0.317964,0.6120091 l -0.09663,0.1189567 0.02561,0.1220782 c 0.04437,0.2115327 -0.0138,0.3628234 -0.195811,0.5093207 l -0.08812,0.070927 -3.1585239,0.00597 -3.1585238,0.00597 z"
     id="path3824"
     inkscape:connector-curvature="0" />
  <path
     style="fill:#000000;fill-opacity:0;stroke-width:0.02293267"
     d="M 5.2693381,6.9321694 C 5.0034718,6.7918072 4.9329227,6.4326313 5.126743,6.2061957 5.2934618,6.0114224 5.1581512,6.0231905 7.2374889,6.0226214 c 1.0121905,-2.775e-4 1.8403463,-0.00703 1.8403463,-0.014996 0,-0.00797 -0.020511,-0.047681 -0.04558,-0.088243 C 8.9595554,5.8017518 8.8691372,5.5434947 8.835384,5.3570705 8.7350449,4.8028795 8.9014021,4.2450558 9.2914028,3.827964 9.6695684,3.4235294 10.158384,3.2250655 10.705003,3.2540281 c 0.283512,0.015022 0.452663,0.056113 0.689031,0.1673834 0.463433,0.2181606 0.806614,0.6203553 0.966772,1.1330157 0.04561,0.1459817 0.05373,0.2205532 0.05373,0.4930523 0,0.272429 -0.0081,0.3471082 -0.05371,0.4930523 -0.06772,0.2168822 -0.193232,0.4584625 -0.317964,0.6120091 l -0.09663,0.1189567 0.02561,0.1220782 c 0.04437,0.2115327 -0.0138,0.3628234 -0.195811,0.5093207 l -0.08812,0.070927 -3.1585239,0.00597 -3.1585238,0.00597 z"
     id="path3826"
     inkscape:connector-curvature="0" />
  <g
     id="g4646"
     transform="matrix(0.7962963,0,0,0.89772727,1.0871782,-0.19049747)">
    <g
       id="g4635">
      <ellipse
         style="fill:#474747;fill-opacity:1"
         id="path3786"
         cx="6.8683329"
         cy="3.760957"
         rx="1.8231468"
         ry="1.8116806" />
      <ellipse
         style="fill:#ffffff;fill-opacity:1;stroke-width:0.77215189"
         id="path3786-3"
         cx="6.8683329"
         cy="3.760957"
         rx="1.4077463"
         ry="1.3988926" />
    </g>
    <path
       inkscape:connector-curvature="0"
       id="rect4637"
       d="M 4.9993211,3.8297549 H 8.7144128 V 5.9854253 H 4.9993211 Z"
       style="fill:#474747;fill-opacity:1;stroke-width:0.9969278;image-rendering:auto" />
  </g>
</svg>
